Coordinates
version=1
nRows=10
nColumns=33
inDegrees=yes

Units are S.I. units (second, meters, Newtons, ...)
Angles are in degrees.

endheader
time	ground_thorax_rot_x	ground_thorax_rot_y	ground_thorax_rot_z	ground_thorax_tx	ground_thorax_ty	ground_thorax_tz	clav_prot_r	clav_elev_r	scapula_abduction_r	scapula_elevation_r	scapula_upward_rot_r	scapula_winging_r	shoulder_elv_r	plane_of_elev_r	axial_rot_r	elbow_flexion_r	pro_sup_r	wrist_flex_r	wrist_dev_r	clav_prot_l	clav_elev_l	scapula_abduction_l	scapula_elevation_l	scapula_upward_rot_l	scapula_winging_l	shoulder_elv_l	plane_of_elev_l	axial_rot_l	elbow_flexion_l	pro_sup_l	wrist_flex_l	wrist_dev_l
      5.88000000	     36.76839771	     -5.45366776	      4.81549552	     -5.33240216	    806.52649666	      1.94383502	     12.67973027	     39.88009125	     45.00000000	     38.25767905	    -11.46702413	  -2962.00807324	  -1918.89549044	    149.35434831	   -120.67699811	   1451.19058733	     14.98551762	     17.38650650	     10.98081039	      4.07785241	    -45.00000000	    -45.00000000	     45.00000000	    -13.34410226	   2606.12197711	  -3700.53967102	    139.80628711	    162.21909819	    365.03315273	     15.81820469	     12.94142422	    -17.79439480
      5.89000000	     36.74652168	     -5.64957027	      4.62188495	     -3.49262714	    805.25023117	      2.10115495	     12.10662299	     39.34821563	     45.00000000	     37.60186110	    -10.70995766	  -2962.28220597	  -1919.15063322	    149.33643304	   -119.26347690	   1450.79047567	     14.82839824	     17.39559968	     10.79894080	      4.55756319	    -45.00000000	    -45.00000000	     45.00000000	    -13.29053931	   2605.87409861	  -3700.28915828	    139.63775852	    162.56882727	    365.00290273	     16.05360758	     12.90262288	    -17.77558741
      5.90000000	     36.82160330	     -5.59914182	      4.77885431	     -2.02469559	    804.18013566	      2.18163948	     12.16708153	     38.84743759	     45.00000000	     37.26193232	    -10.60800279	  -2962.36849014	  -1919.28229792	    149.44613488	   -118.36471060	   1450.61354135	     14.71406195	     17.30614744	     10.72371901	      4.54629806	    -45.00000000	    -45.00000000	     45.00000000	    -13.52228895	   2605.72039050	  -3700.22439452	    139.59434447	    162.48580448	    364.95365252	     16.46606240	     12.69434972	    -17.76919457
      5.91000000	     36.98048397	     -5.65565115	      4.87520266	     -0.94531818	    803.27846380	      2.17111920	     12.12994217	     38.64043937	     45.00000000	     37.06179455	    -10.42777263	  -2962.32561438	  -1919.32709655	    149.61959733	   -117.63961222	   1450.48001020	     14.69890781	     17.21013016	     10.77591694	      4.48629160	    -45.00000000	    -45.00000000	     45.00000000	    -13.51808240	   2605.53098399	  -3700.23828469	    139.71348250	    162.43553955	    364.93788050	     16.92008569	     12.47045910	    -17.82302446
      5.92000000	     37.15471949	     -5.67485045	      4.94164305	     -0.26118503	    802.50466850	      2.06310325	     12.05506858	     38.44258996	     45.00000000	     36.87236791	    -10.41993069	  -2962.23931717	  -1919.20475790	    149.82025419	   -116.94915403	   1450.40665513	     14.80409868	     17.19129649	     10.95914829	      4.43787962	    -45.00000000	    -45.00000000	     45.00000000	    -13.38757565	   2605.47986506	  -3700.38012865	    139.82313532	    162.46326319	    364.98955742	     17.35649837	     12.20799253	    -17.91806673
      5.93000000	     37.20191788	     -5.79690286	      4.98814347	      0.03337692	    801.81654927	      1.85555355	     12.00195669	     38.45457456	     45.00000000	     36.66526482	    -10.35122950	  -2962.34175436	  -1919.41483044	    149.84951303	   -116.40136871	   1450.28679322	     15.00865613	     17.15375375	     10.99802368	      4.38332329	    -45.00000000	    -45.00000000	     45.00000000	    -13.30519430	   2605.63780774	  -3700.22191951	    139.75428739	    162.42992584	    365.04944675	     17.81396666	     12.01378740	    -17.98723130
      5.94000000	     37.31590264	     -5.88273459	      5.00923244	     -0.05768188	    801.18999225	      1.55590798	     11.93393985	     38.39272066	     45.00000000	     36.61504514	    -10.34891657	  -2962.25789512	  -1919.50605249	    150.02993322	   -115.97500818	   1450.13513822	     15.32218179	     17.12075585	     11.06578366	      4.32582463	    -45.00000000	    -45.00000000	     45.00000000	    -13.16213634	   2605.58003879	  -3700.22421940	    139.85272950	    162.51902624	    364.94513814	     18.25980751	     11.78426097	    -18.03390987
      5.95000000	     37.42463396	     -5.99373794	      4.99015319	     -0.51894770	    800.60013356	      1.17723793	     11.95448378	     38.48680520	     45.00000000	     36.29977190	    -10.32726228	  -2962.61526810	  -1919.52287010	    149.77958130	   -115.79115477	   1449.92863626	     15.70678844	     17.08330527	     11.06706677	      4.30011135	    -45.00000000	    -45.00000000	     45.00000000	    -13.11613081	   2605.92895738	  -3700.18236102	    139.56011998	    162.56399125	    364.88160766	     18.67923491	     11.72164090	    -18.05423405
      5.96000000	     37.69333020	     -6.06492910	      4.97857811	     -1.33953966	    800.02858558	      0.73575292	     11.87342295	     38.46428723	     45.00000000	     36.52503889	    -10.35429963	  -2962.43655308	  -1919.50400834	    150.18387438	   -115.42008576	   1449.96050565	     16.28115910	     17.12577121	     11.10443857	      4.24982124	    -45.00000000	    -45.00000000	     45.00000000	    -13.13783891	   2605.63699551	  -3700.24985549	    139.89353042	    162.71404395	    364.86630426	     19.09765978	     11.53706872	    -18.12671204
      5.97000000	     37.86670377	     -6.10838080	      4.99263235	     -2.49928310	    799.46931419	      0.25543230	     11.92688387	     38.38981864	     45.00000000	     36.59932268	    -10.65624029	  -2962.65819325	  -1919.60494809	    150.10395737	   -115.10266597	   1449.92325306	     16.96557335	     17.17022272	     11.15771715	      4.27688275	    -45.00000000	    -45.00000000	     45.00000000	    -13.22293046	   2605.98225206	  -3700.29211363	    139.64451270	    162.83960881	    364.79781157	     19.45333592	     11.50218753	    -18.14808410
